<svg width="17" height="16" viewBox="0 0 17 16" fill="none" xmlns="http://www.w3.org/2000/svg">
<g clip-path="url(#clip0_119_460)">
<path d="M11.7893 2.98112L16.2159 7.37019L16.2529 7.40454C16.401 7.55141 16.4872 7.74511 16.5 7.97396L16.4993 8.0509C16.4885 8.23218 16.4192 8.40537 16.2827 8.56056L16.2311 8.61388L11.7893 13.0188C11.4608 13.3446 10.9297 13.3446 10.6012 13.0188C10.2708 12.6912 10.2708 12.1584 10.6012 11.8307L13.6681 8.78899L1.34188 8.78929C0.877711 8.78929 0.5 8.41474 0.5 7.95094C0.5 7.48713 0.877715 7.11258 1.34187 7.11258L13.5691 7.11228L10.6012 4.16923C10.2708 3.84155 10.2708 3.3088 10.6012 2.98112C10.9297 2.65538 11.4608 2.65538 11.7893 2.98112Z" fill="#8C2A8D"/>
</g>
<defs>
<clipPath id="clip0_119_460">
<rect width="16" height="16" fill="white" transform="translate(0.5)"/>
</clipPath>
</defs>
</svg>
