<svg width="20" height="20" viewBox="0 0 20 20" fill="none" xmlns="http://www.w3.org/2000/svg">
<circle cx="10" cy="10" r="9.5" stroke="white"/>
<path d="M6.24604 6.25476C5.95314 6.54766 5.95314 7.02253 6.24604 7.31543L8.9349 10.0043L6.24604 12.6932C5.95314 12.986 5.95314 13.4609 6.24604 13.7538C6.53893 14.0467 7.01381 14.0467 7.3067 13.7538L9.99555 11.0649L12.6844 13.7538C12.9773 14.0467 13.4522 14.0467 13.7451 13.7538C14.038 13.4609 14.038 12.986 13.7451 12.6932L11.0562 10.0043L13.7451 7.31544C14.038 7.02255 14.038 6.54767 13.7451 6.25478C13.4521 5.96188 12.9773 5.96188 12.6844 6.25478L9.99555 8.94362L7.3067 6.25476C7.01381 5.96187 6.53893 5.96187 6.24604 6.25476Z" fill="white"/>
</svg>
