<svg width="24" height="24" viewBox="0 0 24 24" fill="none" xmlns="http://www.w3.org/2000/svg">
<path fill-rule="evenodd" clip-rule="evenodd" d="M19.4513 1.32874C19.1233 1.13681 18.7039 1.25071 18.5146 1.58314L16.4174 5.26608C14.9886 4.59731 13.5096 4.25536 12.0125 4.25536C7.98974 4.25536 4.09828 6.72553 0.960219 11.3692L0.947773 11.3875L0.936887 11.4033C0.832361 11.5529 0.829692 11.7289 0.936365 11.8768C3.25197 15.3164 5.98061 17.569 8.87034 18.5158L7.19972 21.4476C7.01034 21.7801 7.12272 22.2052 7.45068 22.3971L7.74762 22.5708C8.07559 22.7627 8.49496 22.6489 8.68434 22.3164L19.9991 2.45194C20.1886 2.11951 20.0762 1.69445 19.7482 1.50251L19.4513 1.32874ZM15.5077 6.8632C14.3448 6.35122 13.1706 6.10167 12.0125 6.10167C9.08959 6.10167 6.06384 7.69125 3.37663 11.0776C3.11867 11.4028 3.11867 11.8767 3.37663 12.2018C5.39095 14.7403 7.59544 16.2695 9.80428 16.8763L10.9593 14.8485C9.63988 14.4276 8.54885 13.2538 8.54885 11.6416C8.54885 9.60224 10.1119 7.94888 12.0397 7.94888C12.9296 7.94888 13.7417 8.30117 14.3584 8.88104L15.5077 6.8632ZM13.4051 10.5546C13.1082 10.0943 12.6201 9.79518 12.0397 9.79518C11.075 9.79518 10.286 10.6205 10.286 11.6402C10.286 12.3141 11.0087 13.1015 11.9166 13.1678L13.4051 10.5546Z" fill="#7E6E8C"/>
<path d="M12.5889 19.0081C16.3978 18.7841 20.0617 16.3446 23.0452 11.9409C23.1077 11.8486 23.1426 11.7532 23.1426 11.6397C23.1426 11.5316 23.1126 11.4412 23.0531 11.3533C21.9065 9.65803 20.659 8.25331 19.3414 7.15335L18.4335 8.74732C19.1901 9.39883 19.931 10.1743 20.6478 11.0776C20.9058 11.4027 20.9058 11.8767 20.6478 12.2018C18.4863 14.9259 16.1057 16.4877 13.7358 16.9946L12.5889 19.0081Z" fill="#7E6E8C"/>
</svg>
