<svg width="24" height="27" viewBox="0 0 24 27" fill="none" xmlns="http://www.w3.org/2000/svg">
<ellipse cx="12" cy="13.5264" rx="12" ry="12.6316" fill="#AC83CF"/>
<path d="M18.473 14.0246C18.411 14.0903 18.3373 14.1425 18.256 14.1782C18.1748 14.2138 18.0876 14.2321 17.9996 14.2321C17.9116 14.2321 17.8245 14.2138 17.7432 14.1782C17.662 14.1425 17.5883 14.0903 17.5263 14.0246L17.333 13.8211V19.3509C17.3208 19.6791 17.1856 19.9889 16.957 20.2125C16.7283 20.4361 16.4249 20.5552 16.113 20.5439H14.6663C14.4895 20.5439 14.3199 20.4699 14.1949 20.3383C14.0699 20.2067 13.9996 20.0282 13.9996 19.8421V15.7018C13.9996 15.5156 13.9294 15.3371 13.8044 15.2055C13.6793 15.0739 13.5098 15 13.333 15H10.6663C10.4895 15 10.3199 15.0739 10.1949 15.2055C10.0699 15.3371 9.99963 15.5156 9.99963 15.7018V19.8421C9.99963 20.0282 9.9294 20.2067 9.80437 20.3383C9.67935 20.4699 9.50978 20.5439 9.33297 20.5439H7.8863C7.57441 20.5552 7.27094 20.4361 7.04229 20.2125C6.81365 19.9889 6.67846 19.6791 6.6663 19.3509V13.8211L6.47297 14.0246C6.41099 14.0903 6.33726 14.1425 6.25602 14.1782C6.17478 14.2138 6.08764 14.2321 5.99963 14.2321C5.91163 14.2321 5.82449 14.2138 5.74325 14.1782C5.66201 14.1425 5.58828 14.0903 5.5263 14.0246C5.46381 13.9593 5.41422 13.8817 5.38037 13.7962C5.34653 13.7107 5.3291 13.619 5.3291 13.5263C5.3291 13.4337 5.34653 13.3419 5.38037 13.2564C5.41422 13.1709 5.46381 13.0933 5.5263 13.0281L11.5263 6.71228C11.5883 6.6465 11.662 6.5943 11.7432 6.55867C11.8245 6.52304 11.9116 6.5047 11.9996 6.5047C12.0876 6.5047 12.1748 6.52304 12.256 6.55867C12.3373 6.5943 12.411 6.6465 12.473 6.71228L18.473 13.0281C18.5355 13.0933 18.585 13.1709 18.6189 13.2564C18.6527 13.3419 18.6702 13.4337 18.6702 13.5263C18.6702 13.619 18.6527 13.7107 18.6189 13.7962C18.585 13.8817 18.5355 13.9593 18.473 14.0246Z" fill="white"/>
</svg>
