<svg width="52" height="52" viewBox="0 0 52 52" fill="none" xmlns="http://www.w3.org/2000/svg">
<circle cx="26" cy="26" r="25.5" fill="white" stroke="#CAC2D1"/>
<g clip-path="url(#clip0_159_132)">
<path d="M22.0006 26C22.0006 23.7909 23.7909 21.9997 26 21.9997C28.2091 21.9997 30.0003 23.7909 30.0003 26C30.0003 28.2091 28.2091 30.0003 26 30.0003C23.7909 30.0003 22.0006 28.2091 22.0006 26ZM19.8381 26C19.8381 29.4032 22.5968 32.1619 26 32.1619C29.4032 32.1619 32.1619 29.4032 32.1619 26C32.1619 22.5968 29.4032 19.8381 26 19.8381C22.5968 19.8381 19.8381 22.5968 19.8381 26ZM30.9658 19.5938C30.9657 19.8786 31.05 20.1571 31.2082 20.3939C31.3663 20.6308 31.5911 20.8155 31.8542 20.9246C32.1173 21.0337 32.4068 21.0623 32.6862 21.0068C32.9655 20.9514 33.2221 20.8143 33.4236 20.613C33.6251 20.4117 33.7623 20.1552 33.818 19.8759C33.8737 19.5966 33.8453 19.307 33.7364 19.0439C33.6275 18.7807 33.443 18.5557 33.2063 18.3974C32.9695 18.2391 32.6912 18.1545 32.4064 18.1544H32.4058C32.024 18.1546 31.658 18.3063 31.388 18.5762C31.118 18.846 30.9661 19.2121 30.9658 19.5938ZM21.152 35.7677C19.982 35.7144 19.3461 35.5196 18.9236 35.3549C18.3633 35.1368 17.9636 34.877 17.5433 34.4573C17.123 34.0376 16.8628 33.6382 16.6457 33.078C16.4809 32.6556 16.286 32.0195 16.2329 30.8495C16.1747 29.5846 16.1631 29.2047 16.1631 26.0001C16.1631 22.7955 16.1756 22.4166 16.2329 21.1507C16.2861 19.9807 16.4825 19.3459 16.6457 18.9222C16.8638 18.362 17.1236 17.9622 17.5433 17.5419C17.963 17.1216 18.3623 16.8615 18.9236 16.6443C19.346 16.4796 19.982 16.2847 21.152 16.2315C22.4169 16.1733 22.7969 16.1617 26 16.1617C29.2031 16.1617 29.5835 16.1743 30.8494 16.2315C32.0194 16.2848 32.6542 16.4811 33.0779 16.6443C33.6381 16.8615 34.0379 17.1222 34.4582 17.5419C34.8785 17.9616 35.1377 18.362 35.3558 18.9222C35.5205 19.3446 35.7154 19.9807 35.7686 21.1507C35.8268 22.4166 35.8384 22.7955 35.8384 26.0001C35.8384 29.2047 35.8268 29.5836 35.7686 30.8495C35.7153 32.0195 35.5195 32.6554 35.3558 33.078C35.1377 33.6382 34.8779 34.038 34.4582 34.4573C34.0385 34.8766 33.6381 35.1368 33.0779 35.3549C32.6555 35.5196 32.0194 35.7145 30.8494 35.7677C29.5845 35.8259 29.2046 35.8375 26 35.8375C22.7954 35.8375 22.4165 35.8259 21.152 35.7677ZM21.0526 14.0727C19.7752 14.1308 18.9022 14.3334 18.1399 14.63C17.3504 14.9364 16.682 15.3474 16.0142 16.0142C15.3463 16.681 14.9364 17.3504 14.63 18.1399C14.3334 18.9027 14.1308 19.7752 14.0727 21.0526C14.0135 22.3321 14 22.7412 14 26C14 29.2588 14.0135 29.6679 14.0727 30.9474C14.1308 32.2249 14.3334 33.0973 14.63 33.8601C14.9364 34.6491 15.3464 35.3193 16.0142 35.9858C16.682 36.6524 17.3504 37.0628 18.1399 37.37C18.9037 37.6666 19.7752 37.8692 21.0526 37.9273C22.3328 37.9855 22.7412 38 26 38C29.2588 38 29.6679 37.9865 30.9474 37.9273C32.2249 37.8692 33.0973 37.6666 33.8601 37.37C34.6491 37.0628 35.318 36.6526 35.9858 35.9858C36.6537 35.319 37.0628 34.6491 37.37 33.8601C37.6666 33.0973 37.8701 32.2248 37.9273 30.9474C37.9855 29.6669 37.999 29.2588 37.999 26C37.999 22.7412 37.9855 22.3321 37.9273 21.0526C37.8692 19.7751 37.6666 18.9022 37.37 18.1399C37.0628 17.3509 36.6526 16.682 35.9858 16.0142C35.319 15.3463 34.6491 14.9364 33.8611 14.63C33.0973 14.3334 32.2248 14.1299 30.9483 14.0727C29.6688 14.0145 29.2598 14 26.001 14C22.7421 14 22.3328 14.0135 21.0526 14.0727Z" fill="url(#paint0_radial_159_132)"/>
<path d="M22.0006 26C22.0006 23.7909 23.7909 21.9997 26 21.9997C28.2091 21.9997 30.0003 23.7909 30.0003 26C30.0003 28.2091 28.2091 30.0003 26 30.0003C23.7909 30.0003 22.0006 28.2091 22.0006 26ZM19.8381 26C19.8381 29.4032 22.5968 32.1619 26 32.1619C29.4032 32.1619 32.1619 29.4032 32.1619 26C32.1619 22.5968 29.4032 19.8381 26 19.8381C22.5968 19.8381 19.8381 22.5968 19.8381 26ZM30.9658 19.5938C30.9657 19.8786 31.05 20.1571 31.2082 20.3939C31.3663 20.6308 31.5911 20.8155 31.8542 20.9246C32.1173 21.0337 32.4068 21.0623 32.6862 21.0068C32.9655 20.9514 33.2221 20.8143 33.4236 20.613C33.6251 20.4117 33.7623 20.1552 33.818 19.8759C33.8737 19.5966 33.8453 19.307 33.7364 19.0439C33.6275 18.7807 33.443 18.5557 33.2063 18.3974C32.9695 18.2391 32.6912 18.1545 32.4064 18.1544H32.4058C32.024 18.1546 31.658 18.3063 31.388 18.5762C31.118 18.846 30.9661 19.2121 30.9658 19.5938ZM21.152 35.7677C19.982 35.7144 19.3461 35.5196 18.9236 35.3549C18.3633 35.1368 17.9636 34.877 17.5433 34.4573C17.123 34.0376 16.8628 33.6382 16.6457 33.078C16.4809 32.6556 16.286 32.0195 16.2329 30.8495C16.1747 29.5846 16.1631 29.2047 16.1631 26.0001C16.1631 22.7955 16.1756 22.4166 16.2329 21.1507C16.2861 19.9807 16.4825 19.3459 16.6457 18.9222C16.8638 18.362 17.1236 17.9622 17.5433 17.5419C17.963 17.1216 18.3623 16.8615 18.9236 16.6443C19.346 16.4796 19.982 16.2847 21.152 16.2315C22.4169 16.1733 22.7969 16.1617 26 16.1617C29.2031 16.1617 29.5835 16.1743 30.8494 16.2315C32.0194 16.2848 32.6542 16.4811 33.0779 16.6443C33.6381 16.8615 34.0379 17.1222 34.4582 17.5419C34.8785 17.9616 35.1377 18.362 35.3558 18.9222C35.5205 19.3446 35.7154 19.9807 35.7686 21.1507C35.8268 22.4166 35.8384 22.7955 35.8384 26.0001C35.8384 29.2047 35.8268 29.5836 35.7686 30.8495C35.7153 32.0195 35.5195 32.6554 35.3558 33.078C35.1377 33.6382 34.8779 34.038 34.4582 34.4573C34.0385 34.8766 33.6381 35.1368 33.0779 35.3549C32.6555 35.5196 32.0194 35.7145 30.8494 35.7677C29.5845 35.8259 29.2046 35.8375 26 35.8375C22.7954 35.8375 22.4165 35.8259 21.152 35.7677ZM21.0526 14.0727C19.7752 14.1308 18.9022 14.3334 18.1399 14.63C17.3504 14.9364 16.682 15.3474 16.0142 16.0142C15.3463 16.681 14.9364 17.3504 14.63 18.1399C14.3334 18.9027 14.1308 19.7752 14.0727 21.0526C14.0135 22.3321 14 22.7412 14 26C14 29.2588 14.0135 29.6679 14.0727 30.9474C14.1308 32.2249 14.3334 33.0973 14.63 33.8601C14.9364 34.6491 15.3464 35.3193 16.0142 35.9858C16.682 36.6524 17.3504 37.0628 18.1399 37.37C18.9037 37.6666 19.7752 37.8692 21.0526 37.9273C22.3328 37.9855 22.7412 38 26 38C29.2588 38 29.6679 37.9865 30.9474 37.9273C32.2249 37.8692 33.0973 37.6666 33.8601 37.37C34.6491 37.0628 35.318 36.6526 35.9858 35.9858C36.6537 35.319 37.0628 34.6491 37.37 33.8601C37.6666 33.0973 37.8701 32.2248 37.9273 30.9474C37.9855 29.6669 37.999 29.2588 37.999 26C37.999 22.7412 37.9855 22.3321 37.9273 21.0526C37.8692 19.7751 37.6666 18.9022 37.37 18.1399C37.0628 17.3509 36.6526 16.682 35.9858 16.0142C35.319 15.3463 34.6491 14.9364 33.8611 14.63C33.0973 14.3334 32.2248 14.1299 30.9483 14.0727C29.6688 14.0145 29.2598 14 26.001 14C22.7421 14 22.3328 14.0135 21.0526 14.0727Z" fill="url(#paint1_radial_159_132)"/>
</g>
<defs>
<radialGradient id="paint0_radial_159_132" cx="0" cy="0" r="1" gradientUnits="userSpaceOnUse" gradientTransform="translate(17.1885 38.1134) scale(31.33 31.33)">
<stop offset="0.09" stop-color="#FA8F21"/>
<stop offset="0.78" stop-color="#D82D7E"/>
</radialGradient>
<radialGradient id="paint1_radial_159_132" cx="0" cy="0" r="1" gradientUnits="userSpaceOnUse" gradientTransform="translate(28.5549 39.1886) scale(24.6924)">
<stop offset="0.64" stop-color="#8C3AAA" stop-opacity="0"/>
<stop offset="1" stop-color="#8C3AAA"/>
</radialGradient>
<clipPath id="clip0_159_132">
<rect width="24" height="24" fill="white" transform="translate(14 14)"/>
</clipPath>
</defs>
</svg>
