<svg width="24" height="24" viewBox="0 0 24 24" fill="none" xmlns="http://www.w3.org/2000/svg">
<path d="M18.84 4.5H5.16C4.38753 4.50199 3.64738 4.81024 3.10186 5.35716C2.55635 5.90409 2.25 6.64503 2.25 7.4175V15.8325C2.25 16.605 2.55635 17.3459 3.10186 17.8928C3.64738 18.4398 4.38753 18.748 5.16 18.75H18.84C19.6125 18.748 20.3526 18.4398 20.8981 17.8928C21.4437 17.3459 21.75 16.605 21.75 15.8325V7.4175C21.75 6.64503 21.4437 5.90409 20.8981 5.35716C20.3526 4.81024 19.6125 4.50199 18.84 4.5ZM18.84 6H18.96L12 11.07L5.04 6H5.16H18.84ZM20.25 15.8325C20.25 16.2071 20.1017 16.5666 19.8375 16.8322C19.5733 17.0978 19.2146 17.248 18.84 17.25H5.16C4.78536 17.248 4.42673 17.0978 4.16252 16.8322C3.89831 16.5666 3.74999 16.2071 3.75 15.8325V7.4175C3.75172 7.26699 3.77703 7.11767 3.825 6.975L11.565 12.6075C11.6934 12.7014 11.8484 12.7519 12.0075 12.7519C12.1666 12.7519 12.3216 12.7014 12.45 12.6075L20.1825 6.975C20.2305 7.11767 20.2558 7.26699 20.2575 7.4175L20.25 15.8325Z" fill="#8C2A8D"/>
</svg>
