<svg width="24" height="24" viewBox="0 0 24 24" fill="none" xmlns="http://www.w3.org/2000/svg">
<path fill-rule="evenodd" clip-rule="evenodd" d="M15.2119 13.2128C15.4164 12.7493 15.5307 12.2335 15.5307 12.0014C15.5307 9.98947 13.9676 8.35825 12.0397 8.35825C10.1119 8.35825 8.54883 9.98947 8.54883 12.0014C8.54883 14.0132 10.2943 15.3331 12.0397 15.3331C13.1562 15.3331 14.15 14.787 14.7874 13.9367C14.9545 13.7144 15.0977 13.4715 15.2119 13.2128ZM12.0397 13.5116C12.4761 13.5116 12.875 13.3443 13.1818 13.0677C13.5517 12.7342 13.7146 12.2406 13.7146 12.0014C13.7146 10.9954 13.0045 10.1798 12.0397 10.1798C11.075 10.1798 10.286 10.994 10.286 12C10.286 12.6946 11.075 13.5116 12.0397 13.5116Z" fill="#7E6E8C"/>
<path fill-rule="evenodd" clip-rule="evenodd" d="M0.936382 12.2335C0.922745 12.2166 0.950019 12.2512 0.936382 12.2335C0.829685 12.0875 0.83237 11.914 0.936862 11.7663C0.944516 11.7555 0.952316 11.7442 0.960219 11.7328C4.09828 7.15131 7.98975 4.71429 12.0125 4.71429C16.031 4.71429 19.919 7.14476 23.0536 11.717C23.1131 11.8037 23.1431 11.8929 23.1431 11.9996C23.1431 12.1115 23.1082 12.2056 23.0457 12.2967C19.9119 16.8602 16.0273 19.2857 12.0125 19.2857C7.97952 19.2857 4.07785 16.8371 0.936382 12.2335ZM3.37664 11.445C3.11865 11.7658 3.11865 12.2333 3.37663 12.5542C6.06385 15.8951 9.08959 17.4642 12.0125 17.4642C14.9354 17.4642 17.9611 15.8951 20.6483 12.5542C20.9063 12.2333 20.9063 11.7658 20.6483 11.445C17.9611 8.10408 14.9354 6.53583 12.0125 6.53583C9.08959 6.53583 6.06385 8.10408 3.37664 11.445Z" fill="#7E6E8C"/>
</svg>
