<svg width="52" height="52" viewBox="0 0 52 52" fill="none" xmlns="http://www.w3.org/2000/svg">
<circle cx="26" cy="26" r="25.5" fill="white" stroke="#CAC2D1"/>
<g clip-path="url(#clip0_159_130)">
<path fill-rule="evenodd" clip-rule="evenodd" d="M19.1633 26C19.1633 25.2379 19.2898 24.5072 19.5158 23.8219L15.5614 20.8021C14.7907 22.3669 14.3564 24.1301 14.3564 26C14.3564 27.8683 14.7901 29.6304 15.5598 31.1941L19.512 28.1685C19.2882 27.4864 19.1633 26.7584 19.1633 26Z" fill="#FBBC05"/>
<path fill-rule="evenodd" clip-rule="evenodd" d="M26.1066 19.0667C27.7623 19.0667 29.2578 19.6533 30.4328 20.6133L33.8509 17.2C31.768 15.3867 29.0975 14.2667 26.1066 14.2667C21.4632 14.2667 17.4725 16.9221 15.5615 20.8021L19.5159 23.8219C20.4271 21.056 23.0244 19.0667 26.1066 19.0667Z" fill="#EB4335"/>
<path fill-rule="evenodd" clip-rule="evenodd" d="M26.1066 32.9333C23.0244 32.9333 20.4271 30.944 19.5159 28.1781L15.5615 31.1973C17.4725 35.0779 21.4632 37.7333 26.1066 37.7333C28.9725 37.7333 31.7087 36.7157 33.7623 34.8091L30.0087 31.9072C28.9496 32.5744 27.616 32.9333 26.1066 32.9333Z" fill="#34A853"/>
<path fill-rule="evenodd" clip-rule="evenodd" d="M37.3224 26C37.3224 25.3067 37.2155 24.56 37.0553 23.8667H26.1064V28.4H32.4087C32.0936 29.9456 31.2359 31.1339 30.0085 31.9072L33.7621 34.8091C35.9193 32.8069 37.3224 29.8245 37.3224 26Z" fill="#4285F4"/>
</g>
<defs>
<clipPath id="clip0_159_130">
<rect width="24" height="24" fill="white" transform="translate(14 14)"/>
</clipPath>
</defs>
</svg>
